<svg width="450" height="720" viewBox="0 0 450 720" fill="none" xmlns="http://www.w3.org/2000/svg">
<rect width="90" height="90" fill="#313C5F"/>
<path d="M45.375 45.375L90 0V90H0L45.375 45.375Z" fill="#F7B000"/>
<rect x="180" y="90" width="90" height="90" fill="#FF4C4C"/>
<path d="M225.375 135.375L270 90V180H180L225.375 135.375Z" fill="#313C5F"/>
<rect width="90" height="90" transform="matrix(-1 0 0 1 360 90)" fill="#313C5F"/>
<path d="M314.625 135.375L270 90V180H360L314.625 135.375Z" fill="#E3F3EE"/>
<rect x="270" y="270" width="90" height="90" fill="#313C5F"/>
<path d="M315.375 315.375L360 270V360H270L315.375 315.375Z" fill="#8FDFC6"/>
<rect x="270" y="450" width="90" height="90" transform="rotate(-90 270 450)" fill="#F7B000"/>
<path d="M315.375 404.625L270 360L360 360L360 450L315.375 404.625Z" fill="#E3F3EE"/>
<rect width="90" height="90" transform="matrix(-1 0 0 1 450 270)" fill="#DCD7E8"/>
<path d="M404.625 315.375L360 270V360H450L404.625 315.375Z" fill="#E3F3EE"/>
<rect width="90" height="90" transform="matrix(1.19249e-08 -1 -1 -1.19249e-08 450 450)" fill="#FF4C4C"/>
<path d="M404.625 404.625L450 360L360 360L360 450L404.625 404.625Z" fill="#F47A2D"/>
<rect y="180" width="90" height="90" transform="rotate(-90 0 180)" fill="#FF4C4C"/>
<path d="M45.375 134.625L-3.93402e-06 90L90 90L90 180L45.375 134.625Z" fill="#F47A2D"/>
<rect x="90" y="180" width="90" height="90" transform="rotate(90 90 180)" fill="#F7B000"/>
<rect x="90" y="225" width="45" height="90" transform="rotate(90 90 225)" fill="#313C5F"/>
<rect x="360" y="270" width="90" height="90" transform="rotate(-90 360 270)" fill="#F7B000"/>
<rect x="360" y="225" width="45" height="90" transform="rotate(-90 360 225)" fill="#8FDFC6"/>
<rect y="360" width="90" height="90" transform="rotate(-90 0 360)" fill="#DCD7E8"/>
<rect y="315" width="45" height="90" transform="rotate(-90 0 315)" fill="#E3F3EE"/>
<rect x="90" width="90" height="90" fill="#DCD7E8"/>
<rect x="135" width="45" height="90" fill="#E3F3EE"/>
<rect x="90" y="180" width="90" height="90" fill="#E3F3EE"/>
<rect x="135" y="180" width="45" height="90" fill="#DCD7E8"/>
<rect x="90" y="90" width="90" height="90" fill="#8FDFC6"/>
<rect x="135" y="90" width="45" height="90" fill="#F7B000"/>
<rect x="90" y="270" width="90" height="90" fill="#F7B000"/>
<rect x="135" y="270" width="45" height="90" fill="#8FDFC6"/>
<rect x="90" y="360" width="90" height="90" fill="#FF4C4C"/>
<rect x="135" y="360" width="45" height="90" fill="#F47A2D"/>
<rect y="450" width="90" height="90" transform="rotate(-90 0 450)" fill="#313C5F"/>
<path d="M45.0012 405C45.0012 429.853 24.854 450 0.00117803 450C0.00264287 412.875 0 429.853 0 405C0 380.147 0.00117803 396.75 0.00117803 360C24.854 360 45.0012 380.147 45.0012 405Z" fill="#E3F3EE"/>
<rect x="270" width="90" height="90" fill="#DCD7E8"/>
<path d="M270 45C275.909 45 281.761 43.836 287.221 41.5746C292.68 39.3131 297.641 35.9984 301.82 31.8198C305.998 27.6412 309.313 22.6804 311.575 17.2208C313.836 11.7611 315 5.90948 315 0L270 0L270 45Z" fill="#E3F3EE"/>
<rect x="270" y="180" width="90" height="90" fill="#F47A2D"/>
<path d="M270 225C275.909 225 281.761 223.837 287.221 221.575C292.68 219.314 297.641 215.999 301.82 211.82C305.998 207.642 309.313 202.681 311.575 197.221C313.836 191.762 315 185.91 315 180L270 180L270 225Z" fill="#DCD7E8"/>
<rect x="180" y="360" width="90" height="90" transform="rotate(-90 180 360)" fill="#F7B000"/>
<path d="M225 359.999C225 354.09 223.836 348.238 221.575 342.779C219.313 337.319 215.998 332.358 211.82 328.179C207.641 324.001 202.68 320.686 197.221 318.425C191.761 316.163 185.909 314.999 180 314.999L180 359.999H225Z" fill="#313C5F"/>
<rect x="360" y="90" width="90" height="90" transform="rotate(-90 360 90)" fill="#313C5F"/>
<path d="M405 90C405 84.0905 403.836 78.2389 401.575 72.7792C399.313 67.3196 395.998 62.3588 391.82 58.1802C387.641 54.0016 382.68 50.6869 377.221 48.4254C371.761 46.164 365.909 45 360 45L360 90H405Z" fill="#E3F3EE"/>
<rect width="90" height="90" transform="matrix(-1 0 0 1 270 0)" fill="#F7B000"/>
<path d="M270 45C264.091 45 258.239 43.836 252.779 41.5746C247.32 39.3131 242.359 35.9984 238.18 31.8198C234.002 27.6412 230.687 22.6804 228.425 17.2208C226.164 11.7611 225 5.90948 225 0L270 0L270 45Z" fill="#E3F3EE"/>
<rect width="90" height="90" transform="matrix(-1 0 0 1 270 180)" fill="#FF4C4C"/>
<path d="M270 225C264.091 225 258.239 223.837 252.779 221.575C247.32 219.314 242.359 215.999 238.18 211.82C234.002 207.642 230.687 202.681 228.425 197.221C226.164 191.762 225 185.91 225 180L270 180L270 225Z" fill="#F47A2D"/>
<rect width="90" height="90" transform="matrix(-4.37114e-08 1 1 4.37114e-08 180 360)" fill="#DCD7E8"/>
<path d="M225 360C225 365.909 223.836 371.761 221.575 377.221C219.313 382.68 215.998 387.641 211.82 391.82C207.641 395.998 202.68 399.313 197.221 401.575C191.761 403.836 185.909 405 180 405L180 360H225Z" fill="#E3F3EE"/>
<rect width="90" height="90" transform="matrix(-4.37114e-08 1 1 4.37114e-08 360 90)" fill="#FF4C4C"/>
<path d="M405 90C405 95.9095 403.836 101.761 401.575 107.221C399.313 112.68 395.998 117.641 391.82 121.82C387.641 125.998 382.68 129.313 377.221 131.575C371.761 133.836 365.909 135 360 135L360 90H405Z" fill="#F47A2D"/>
<rect y="450" width="90" height="90" fill="#313C5F"/>
<path d="M45.375 495.375L90 450V540H0L45.375 495.375Z" fill="#F7B000"/>
<rect x="90" y="450" width="90" height="90" fill="#DCD7E8"/>
<rect x="135" y="450" width="45" height="90" fill="#E3F3EE"/>
<rect x="270" y="450" width="90" height="90" fill="#DCD7E8"/>
<path d="M270 495C275.909 495 281.761 493.836 287.221 491.575C292.68 489.313 297.641 485.998 301.82 481.82C305.998 477.641 309.313 472.68 311.575 467.221C313.836 461.761 315 455.909 315 450L270 450L270 495Z" fill="#E3F3EE"/>
<rect x="360" y="540" width="90" height="90" transform="rotate(-90 360 540)" fill="#313C5F"/>
<path d="M405 540C405 534.091 403.836 528.239 401.575 522.779C399.313 517.32 395.998 512.359 391.82 508.18C387.641 504.002 382.68 500.687 377.221 498.425C371.761 496.164 365.909 495 360 495L360 540H405Z" fill="#E3F3EE"/>
<rect width="90" height="90" transform="matrix(-1 0 0 1 270 450)" fill="#F7B000"/>
<path d="M270 495C264.091 495 258.239 493.836 252.779 491.575C247.32 489.313 242.359 485.998 238.18 481.82C234.002 477.641 230.687 472.68 228.425 467.221C226.164 461.761 225 455.909 225 450L270 450L270 495Z" fill="#E3F3EE"/>
<rect x="180" y="540" width="90" height="90" fill="#FF4C4C"/>
<path d="M225.375 585.375L270 540V630H180L225.375 585.375Z" fill="#313C5F"/>
<rect width="90" height="90" transform="matrix(-1 0 0 1 360 540)" fill="#313C5F"/>
<path d="M314.625 585.375L270 540V630H360L314.625 585.375Z" fill="#E3F3EE"/>
<rect y="630" width="90" height="90" transform="rotate(-90 0 630)" fill="#FF4C4C"/>
<path d="M45.375 584.625L-3.93402e-06 540L90 540L90 630L45.375 584.625Z" fill="#F47A2D"/>
<rect x="90" y="540" width="90" height="90" fill="#8FDFC6"/>
<rect x="135" y="540" width="45" height="90" fill="#F7B000"/>
<rect width="90" height="90" transform="matrix(-4.37114e-08 1 1 4.37114e-08 360 540)" fill="#FF4C4C"/>
<path d="M405 540C405 545.909 403.836 551.761 401.575 557.221C399.313 562.68 395.998 567.641 391.82 571.82C387.641 575.998 382.68 579.313 377.221 581.575C371.761 583.836 365.909 585 360 585L360 540H405Z" fill="#F47A2D"/>
<rect x="90" y="630" width="90" height="90" transform="rotate(90 90 630)" fill="#F7B000"/>
<rect x="90" y="675" width="45" height="90" transform="rotate(90 90 675)" fill="#313C5F"/>
<rect x="360" y="720" width="90" height="90" transform="rotate(-90 360 720)" fill="#F7B000"/>
<rect x="360" y="675" width="45" height="90" transform="rotate(-90 360 675)" fill="#8FDFC6"/>
<rect x="90" y="630" width="90" height="90" fill="#E3F3EE"/>
<rect x="135" y="630" width="45" height="90" fill="#DCD7E8"/>
<rect x="270" y="630" width="90" height="90" fill="#F47A2D"/>
<path d="M270 675C275.909 675 281.761 673.837 287.221 671.575C292.68 669.314 297.641 665.999 301.82 661.82C305.998 657.642 309.313 652.681 311.575 647.221C313.836 641.762 315 635.91 315 630L270 630L270 675Z" fill="#DCD7E8"/>
<rect width="90" height="90" transform="matrix(-1 0 0 1 270 630)" fill="#FF4C4C"/>
<path d="M270 675C264.091 675 258.239 673.837 252.779 671.575C247.32 669.314 242.359 665.999 238.18 661.82C234.002 657.642 230.687 652.681 228.425 647.221C226.164 641.762 225 635.91 225 630L270 630L270 675Z" fill="#F47A2D"/>
</svg>
