<svg width="242" height="242" viewBox="0 0 242 242" fill="none" xmlns="http://www.w3.org/2000/svg">
<rect x="0.515625" y="9" width="12" height="12" transform="rotate(-45 0.515625 9)" fill="#EBE2F8"/>
<rect x="0.515625" y="137" width="12" height="12" transform="rotate(-45 0.515625 137)" fill="#EBE2F8"/>
<rect x="0.515625" y="41" width="12" height="12" transform="rotate(-45 0.515625 41)" fill="#EBE2F8"/>
<rect x="0.515625" y="169" width="12" height="12" transform="rotate(-45 0.515625 169)" fill="#EBE2F8"/>
<rect x="0.515625" y="73" width="12" height="12" transform="rotate(-45 0.515625 73)" fill="#EBE2F8"/>
<rect x="0.515625" y="201" width="12" height="12" transform="rotate(-45 0.515625 201)" fill="#EBE2F8"/>
<rect x="0.515625" y="105" width="12" height="12" transform="rotate(-45 0.515625 105)" fill="#EBE2F8"/>
<rect x="0.515625" y="233" width="12" height="12" transform="rotate(-45 0.515625 233)" fill="#EBE2F8"/>
<rect x="32.5156" y="9" width="12" height="12" transform="rotate(-45 32.5156 9)" fill="#EBE2F8"/>
<rect x="32.5156" y="137" width="12" height="12" transform="rotate(-45 32.5156 137)" fill="#EBE2F8"/>
<rect x="32.5156" y="41" width="12" height="12" transform="rotate(-45 32.5156 41)" fill="#EBE2F8"/>
<rect x="32.5156" y="169" width="12" height="12" transform="rotate(-45 32.5156 169)" fill="#EBE2F8"/>
<rect x="32.5156" y="73" width="12" height="12" transform="rotate(-45 32.5156 73)" fill="#EBE2F8"/>
<rect x="32.5156" y="201" width="12" height="12" transform="rotate(-45 32.5156 201)" fill="#EBE2F8"/>
<rect x="32.5156" y="105" width="12" height="12" transform="rotate(-45 32.5156 105)" fill="#EBE2F8"/>
<rect x="32.5156" y="233" width="12" height="12" transform="rotate(-45 32.5156 233)" fill="#EBE2F8"/>
<rect x="64.5156" y="9" width="12" height="12" transform="rotate(-45 64.5156 9)" fill="#EBE2F8"/>
<rect x="64.5156" y="137" width="12" height="12" transform="rotate(-45 64.5156 137)" fill="#EBE2F8"/>
<rect x="64.5156" y="41" width="12" height="12" transform="rotate(-45 64.5156 41)" fill="#EBE2F8"/>
<rect x="64.5156" y="169" width="12" height="12" transform="rotate(-45 64.5156 169)" fill="#EBE2F8"/>
<rect x="64.5156" y="73" width="12" height="12" transform="rotate(-45 64.5156 73)" fill="#EBE2F8"/>
<rect x="64.5156" y="201" width="12" height="12" transform="rotate(-45 64.5156 201)" fill="#EBE2F8"/>
<rect x="64.5156" y="105" width="12" height="12" transform="rotate(-45 64.5156 105)" fill="#EBE2F8"/>
<rect x="64.5156" y="233" width="12" height="12" transform="rotate(-45 64.5156 233)" fill="#EBE2F8"/>
<rect x="96.5156" y="9" width="12" height="12" transform="rotate(-45 96.5156 9)" fill="#EBE2F8"/>
<rect x="96.5156" y="137" width="12" height="12" transform="rotate(-45 96.5156 137)" fill="#EBE2F8"/>
<rect x="96.5156" y="41" width="12" height="12" transform="rotate(-45 96.5156 41)" fill="#EBE2F8"/>
<rect x="96.5156" y="169" width="12" height="12" transform="rotate(-45 96.5156 169)" fill="#EBE2F8"/>
<rect x="96.5156" y="73" width="12" height="12" transform="rotate(-45 96.5156 73)" fill="#EBE2F8"/>
<rect x="96.5156" y="201" width="12" height="12" transform="rotate(-45 96.5156 201)" fill="#EBE2F8"/>
<rect x="96.5156" y="105" width="12" height="12" transform="rotate(-45 96.5156 105)" fill="#EBE2F8"/>
<rect x="96.5156" y="233" width="12" height="12" transform="rotate(-45 96.5156 233)" fill="#EBE2F8"/>
<rect x="128.516" y="9" width="12" height="12" transform="rotate(-45 128.516 9)" fill="#EBE2F8"/>
<rect x="128.516" y="137" width="12" height="12" transform="rotate(-45 128.516 137)" fill="#EBE2F8"/>
<rect x="128.516" y="41" width="12" height="12" transform="rotate(-45 128.516 41)" fill="#EBE2F8"/>
<rect x="128.516" y="169" width="12" height="12" transform="rotate(-45 128.516 169)" fill="#EBE2F8"/>
<rect x="128.516" y="73" width="12" height="12" transform="rotate(-45 128.516 73)" fill="#EBE2F8"/>
<rect x="128.516" y="201" width="12" height="12" transform="rotate(-45 128.516 201)" fill="#EBE2F8"/>
<rect x="128.516" y="105" width="12" height="12" transform="rotate(-45 128.516 105)" fill="#EBE2F8"/>
<rect x="128.516" y="233" width="12" height="12" transform="rotate(-45 128.516 233)" fill="#EBE2F8"/>
<rect x="160.516" y="9" width="12" height="12" transform="rotate(-45 160.516 9)" fill="#EBE2F8"/>
<rect x="160.516" y="137" width="12" height="12" transform="rotate(-45 160.516 137)" fill="#EBE2F8"/>
<rect x="160.516" y="41" width="12" height="12" transform="rotate(-45 160.516 41)" fill="#EBE2F8"/>
<rect x="160.516" y="169" width="12" height="12" transform="rotate(-45 160.516 169)" fill="#EBE2F8"/>
<rect x="160.516" y="73" width="12" height="12" transform="rotate(-45 160.516 73)" fill="#EBE2F8"/>
<rect x="160.516" y="201" width="12" height="12" transform="rotate(-45 160.516 201)" fill="#EBE2F8"/>
<rect x="160.516" y="105" width="12" height="12" transform="rotate(-45 160.516 105)" fill="#EBE2F8"/>
<rect x="160.516" y="233" width="12" height="12" transform="rotate(-45 160.516 233)" fill="#EBE2F8"/>
<rect x="192.516" y="9" width="12" height="12" transform="rotate(-45 192.516 9)" fill="#EBE2F8"/>
<rect x="192.516" y="137" width="12" height="12" transform="rotate(-45 192.516 137)" fill="#EBE2F8"/>
<rect x="192.516" y="41" width="12" height="12" transform="rotate(-45 192.516 41)" fill="#EBE2F8"/>
<rect x="192.516" y="169" width="12" height="12" transform="rotate(-45 192.516 169)" fill="#EBE2F8"/>
<rect x="192.516" y="73" width="12" height="12" transform="rotate(-45 192.516 73)" fill="#EBE2F8"/>
<rect x="192.516" y="201" width="12" height="12" transform="rotate(-45 192.516 201)" fill="#EBE2F8"/>
<rect x="192.516" y="105" width="12" height="12" transform="rotate(-45 192.516 105)" fill="#EBE2F8"/>
<rect x="192.516" y="233" width="12" height="12" transform="rotate(-45 192.516 233)" fill="#EBE2F8"/>
<rect x="224.516" y="9" width="12" height="12" transform="rotate(-45 224.516 9)" fill="#EBE2F8"/>
<rect x="224.516" y="137" width="12" height="12" transform="rotate(-45 224.516 137)" fill="#EBE2F8"/>
<rect x="224.516" y="41" width="12" height="12" transform="rotate(-45 224.516 41)" fill="#EBE2F8"/>
<rect x="224.516" y="169" width="12" height="12" transform="rotate(-45 224.516 169)" fill="#EBE2F8"/>
<rect x="224.516" y="73" width="12" height="12" transform="rotate(-45 224.516 73)" fill="#EBE2F8"/>
<rect x="224.516" y="201" width="12" height="12" transform="rotate(-45 224.516 201)" fill="#EBE2F8"/>
<rect x="224.516" y="105" width="12" height="12" transform="rotate(-45 224.516 105)" fill="#EBE2F8"/>
<rect x="224.516" y="233" width="12" height="12" transform="rotate(-45 224.516 233)" fill="#EBE2F8"/>
</svg>